<?xml version="1.0" ?><!DOCTYPE svg  PUBLIC '-//W3C//DTD SVG 1.1//EN'  'http://www.w3.org/Graphics/SVG/1.1/DTD/svg11.dtd'><svg height="512px" style="enable-background:new 0 0 512 512;" version="1.1" viewBox="0 0 512 512" width="512px" xml:space="preserve" xmlns="http://www.w3.org/2000/svg" xmlns:xlink="http://www.w3.org/1999/xlink"><g id="_x32_"><g><g><path d="M407.585,349.355c-0.474,0-0.819-0.085-1.152-0.158c-1.098-0.261-2.008-0.922-2.554-1.867     c-0.782-1.365-0.745-2.438-0.091-3.438c-7.004,4.221-9.32,4.93-11.098,4.512c-1.055-0.243-1.929-0.892-2.462-1.813     c-0.225-0.388-0.37-0.801-0.431-1.225c-3.924,1.795-6.482,2.353-8.235,1.946c-1.262-0.297-2.299-1.055-2.917-2.122     c-0.606-1.056-0.733-1.904-0.467-2.693c-5.943,2.25-7.927,1.819-9.182,1.541c-2.038-0.437-3.099-1.632-3.633-2.547     c-0.976-1.692-0.388-3.852,1.292-4.828c1.4-0.8,3.117-0.545,4.227,0.516c8.636,0.467,57.605-30.449,100.742-61.092     c0.806-0.576,1.825-0.789,2.801-0.57c0.965,0.206,1.808,0.824,2.299,1.686c1.298,2.244,1.534,4.621-5.974,11.146     c0.146,0.024,0.279,0.049,0.419,0.079c1.092,0.255,2.001,0.922,2.547,1.868c0.455,0.788,0.576,1.68,0.4,2.51     c1.213-0.267,2.201-0.297,3.002-0.103c1.225,0.291,2.243,1.03,2.85,2.08c1.802,3.117,0.321,6.634-10.352,14.627     c1.716,3.002,0.061,5.47-6.465,9.945c0.697,1.534,0.219,3.396-1.207,4.379c-29.242,20.158-32.711,19.369-34.196,19.036     c-1.019-0.23-1.874-0.813-2.438-1.649C413.14,348.173,409.41,349.355,407.585,349.355z M459.811,307.778     c-9.375,5.694-20.916,13.287-29.758,19.133C439.495,321.077,450.981,313.86,459.811,307.778z" style="fill:#25314C;"/></g><g><path d="M442.164,295.886c-0.285,0-0.576-0.036-0.855-0.109c-0.928-0.23-1.723-0.831-2.201-1.661     c-1.407-2.426-0.497-4.536,2.687-7.187c-0.782-1.485-0.412-3.359,0.952-4.433h0.012l0,0c2.869-2.238,5.804-4.543,8.648-6.805     c-0.37-0.279-0.686-0.637-0.922-1.043c-0.91-1.577-1.456-2.522,2.838-7.241c-0.965,0.2-1.498,0.079-2.014-0.042     c-1.092-0.249-1.995-0.91-2.541-1.855c-0.431-0.74-0.631-1.468-0.606-2.202c-0.212,0.146-0.431,0.298-0.648,0.443     c-0.813,0.546-1.819,0.728-2.771,0.515c-0.958-0.224-1.771-0.83-2.262-1.68c-1.723-2.98-0.188-5.494,7.975-11.843     c-0.019-0.018-0.03-0.042-0.037-0.061c-0.77-1.337-0.679-2.323,0.067-3.599l-2.687,1.549c-0.813,0.47-1.783,0.594-2.681,0.352     c-0.831-0.224-1.553-0.746-2.031-1.461c-0.279-0.397-1.978-2.662-3.791-5.073c-0.86-0.207-1.637-0.731-2.152-1.535     c-1.056-1.64-0.57-3.826,1.067-4.878c0.867-0.555,1.952-1.243,3.475-0.855c0.776,0.197,1.474,0.658,1.953,1.298     c1.504,1.992,2.577,3.42,3.354,4.46l13.038-7.526c1.68-0.973,3.845-0.397,4.821,1.292c0.691,1.192,0.776,2.338,0.097,3.981     c0.504-0.343,0.965-0.664,1.377-0.943c6.331-4.354,6.992-4.806,8.836-4.388c0.964,0.215,1.825,0.846,2.316,1.698     c0.903,1.559,0.576,2.902-0.315,4.121c0.055,0.009,0.104,0.021,0.146,0.033c1.08,0.246,1.965,0.897,2.499,1.826     c0.813,1.398,0.854,2.589,0.024,3.93c1.079,0.394,1.91,1.292,2.201,2.417c0.339,1.273-0.061,2.626-1.037,3.511     c-2.256,2.043-4.549,4.154-6.792,6.238c0.339,0.003,0.654,0.048,0.958,0.124c1.024,0.242,1.88,0.873,2.396,1.773     c1.085,1.865,0.569,3.281-1.195,5.137c0.837,0.395,1.522,1.024,1.983,1.825c1.177,2.025,0.746,3.899-1.158,5.998     c0.024,0.036,0.049,0.072,0.066,0.115c0.977,1.686,0.395,3.845-1.298,4.821c-0.437,0.254-0.909,0.399-1.389,0.454     c-3.068,1.322-17.629,9.988-30.54,17.981C443.462,295.704,442.818,295.886,442.164,295.886z" style="fill:#25314C;"/></g><g><path d="M217.327,279.227c-0.303,0-0.606-0.036-0.906-0.115c-0.91-0.242-1.686-0.837-2.156-1.649     c-0.452-0.788-0.594-1.389-0.424-2.911c-1.365,0.279-2.832-0.284-3.645-1.521c-1.073-1.632-0.625-3.82,1.007-4.888     c5.622-3.712,6.562-4.003,8.129-3.627c0.943,0.225,1.786,0.849,2.271,1.692c0.503,0.861,0.564,1.406,0.361,2.717l0.613-0.352     c8.293-4.81,8.293-4.81,9.751-4.422l-0.907,3.415l-3.06,1.765l3.06-1.765l1.592,3.153c-0.712,0.376-8.905,5.124-13.909,8.035     C218.562,279.069,217.946,279.227,217.327,279.227z" style="fill:#25314C;"/></g><g><path d="M209.935,300.901c-0.306,0-0.609-0.037-0.928-0.115c-0.943-0.225-1.819-0.88-2.304-1.717     c-0.534-0.928-0.792-1.37-0.034-7.708c-0.794,0.595-1.613,1.226-2.392,1.862c-0.804,0.655-1.853,0.928-2.869,0.739     c-1.019-0.193-1.904-0.813-2.423-1.716c-1.164-2.014-0.418-3.851,1.798-6.707c-0.215-0.212-0.403-0.461-0.558-0.722     c-1.134-1.965-0.537-3.535,1.798-6.592c-0.303-0.219-0.583-0.498-0.813-0.825c-1.119-1.595-0.73-3.802,0.871-4.918     c8.075-5.658,9.2-5.415,10.503-5.112c0.97,0.212,1.886,0.873,2.38,1.734c1.186,2.056,0.47,3.657-2.15,6.992     c0.327,0.279,0.604,0.606,0.818,0.977c0.979,1.691,0.643,3.032-0.867,5.106c0.537,0.333,0.992,0.8,1.316,1.358     c0.388,0.679,0.546,1.467,0.437,2.243c-0.23,1.687-0.461,3.499-0.664,5.167c0.3-0.194,0.591-0.382,0.864-0.57     c5.973-3.911,7.213-4.729,9.166-4.257c0.946,0.219,1.813,0.861,2.295,1.704c0.215,0.376,0.343,0.595,0.54,1.746     c0.831-0.375,1.65-0.527,2.578-0.339c0.985,0.206,1.953,0.903,2.456,1.771c0.976,1.692,0.4,3.851-1.292,4.827     c-0.395,0.23-0.816,0.37-1.243,0.431c-0.388,0.279-0.916,0.661-1.24,0.91c-1.768,1.321-2.936,2.201-4.697,1.831     c-0.988-0.2-1.886-0.849-2.395-1.723c-0.234-0.412-0.388-0.873-0.446-1.34c-0.03-0.261-0.063-0.521-0.097-0.795     c-0.616,0.4-1.219,0.795-1.75,1.146C213.261,299.791,211.505,300.901,209.935,300.901z" style="fill:#25314C;"/></g><g><path d="M193.491,291.125c-0.47,0-0.943-0.097-1.398-0.291c-1.528-0.661-2.389-2.298-2.065-3.936     c0.07-0.357,0.143-0.716,0.212-1.086c-0.731-0.321-1.346-0.879-1.762-1.595c-0.4-0.691-0.619-1.383-0.619-2.104     c-0.604,0.406-1.152,0.782-1.631,1.116c-7.983,5.464-7.983,5.464-9.685,5.076c-0.961-0.219-1.795-0.831-2.287-1.687     c-0.976-1.686-0.397-3.845,1.292-4.821c0.173-0.103,0.349-0.188,0.531-0.254c0.879-0.528,3.56-2.372,6.155-4.143     c24.324-16.665,33.011-21.456,37.135-20.516c1.225,0.279,2.231,1.007,2.835,2.053c0.946,1.638,0.434,3.732-1.165,4.745     c-8.49,5.403-17.965,11.989-22.92,16.113c0.219,0.879,0.043,2.371-0.9,7.156c0.2,1.383-0.442,2.819-1.731,3.56     c-0.033,0.024-0.073,0.042-0.112,0.061C194.813,290.932,194.158,291.125,193.491,291.125z M179.164,281.847     c0.485,0.291,0.904,0.71,1.207,1.237C180.053,282.526,179.628,282.119,179.164,281.847z" style="fill:#25314C;"/></g><g><path d="M245.891,302.199c-0.279,0-0.555-0.031-0.828-0.098c-0.943-0.225-1.75-0.831-2.234-1.668     c-1.104-1.91-0.537-3.826,1.504-6.853c-0.455,0.334-0.901,0.667-1.334,1.001c-0.806,0.612-1.837,0.843-2.835,0.643     c-0.992-0.2-1.853-0.813-2.359-1.691c-1.028-1.783-0.87-3.584,0.903-5.968c-2.107,1.146-3.547,1.874-4.557,2.329     c-0.055,0.042-0.082,0.055-0.088,0.061l-0.012-0.013c-1.801,0.789-2.235,0.674-2.862,0.51c-0.91-0.243-1.695-0.843-2.162-1.655     c-0.928-1.602-0.458-3.651,1.08-4.694c6.137-4.147,13.311-9.036,20.583-14.015c-0.422-0.34-0.779-0.758-1.059-1.243     c-1.319-2.28-0.188-3.76,2.099-5.706c-2.107,1.219-4.082,2.353-5.834,3.365c-3.951,2.274-6.158,3.535-7.517,4.215     c-0.04,0.018-0.064,0.036-0.067,0.042l-0.006-0.012c-1.658,0.813-2.034,0.716-2.868,0.497c-1.34-0.363-2.35-1.468-2.581-2.832     c-0.024-0.151-0.04-0.297-0.048-0.448c-0.591,0.399-1.183,0.794-1.771,1.188c-1.537,1.037-3.614,0.709-4.757-0.746     c-1.143-1.462-0.964-3.554,0.406-4.797c2.835-2.571,5.74-5.216,8.572-7.808c-1.116,0.343-1.58,0.23-2.077,0.109     c-0.934-0.23-1.792-0.874-2.271-1.704c-0.976-1.689-0.4-3.848,1.292-4.824c0.473-0.273,0.985-0.428,1.501-0.467     c2.732-1.176,13.902-7.901,23.672-14.066c0.813-0.516,1.802-0.673,2.732-0.443c0.934,0.228,1.729,0.831,2.207,1.662     c0.886,1.519,1.334,2.301-2.18,6.104c14.994-8.748,17.42-8.187,18.451-7.944c1.121,0.258,2.049,0.934,2.602,1.898     c0.297,0.5,0.473,0.97,0.539,1.425c0.631-0.364,1.249-0.725,1.855-1.08c0.807-0.473,1.777-0.604,2.681-0.361     c0.91,0.243,1.687,0.834,2.159,1.649c1.328,2.308,0.315,4.175-3.317,7.499c1.031-0.718,2.093-1.461,3.178-2.222     c6.835-4.8,6.835-4.803,8.502-4.434c0.971,0.212,1.808,0.828,2.311,1.683c1.067,1.856,0.437,3.308-0.849,4.646     c7.447-4.354,14.706-8.608,21.286-12.475c1.68-0.982,3.839-0.424,4.833,1.243c0.988,1.674,0.442,3.83-1.225,4.833     c-23.955,14.388-49.109,30.474-64.455,41.432c0.333,0.285,0.618,0.631,0.84,1.025c1.485,2.559,0.023,4.42-4.813,10.569     c-0.197,0.255-0.409,0.516-0.627,0.795c0.37,0.285,0.685,0.637,0.918,1.043c0.977,1.698,0.397,3.856-1.292,4.833     c-0.309,0.176-0.631,0.297-0.961,0.376c-0.888,0.468-3.138,1.856-4.942,3.021C247.23,302.011,246.566,302.199,245.891,302.199z" style="fill:#25314C;"/></g><g><path d="M274.345,305.4c-0.321,0-0.637-0.048-0.952-0.139c-0.916-0.255-1.692-0.867-2.146-1.711     c-1.116-2.043-0.425-3.28,1.352-4.712l-0.024-0.036l0.273-0.158c0.595-0.46,1.304-0.951,2.104-1.497l7.059-4.882     c2.438-1.687,5.379-3.705,8.654-5.974c-0.438,0.03-0.789-0.036-1.177-0.128c-0.964-0.224-1.868-0.885-2.365-1.734     c-0.327-0.569-0.552-1.14-0.643-1.746c-8.175,4.348-9.212,4.088-10.4,3.79c-0.928-0.23-1.838-0.909-2.323-1.729     c-0.042-0.085-0.085-0.163-0.127-0.242c-7.763,4.124-8.654,3.899-9.758,3.614c-0.928-0.236-1.789-0.885-2.262-1.704     c-0.752-1.304-0.582-2.887,0.315-3.99c-3.997,1.668-5.127,1.407-6.046,1.183c-1.14-0.261-2.08-0.946-2.641-1.923     c-0.976-1.691-0.4-3.851,1.292-4.827c0.928-0.533,1.992-0.6,2.926-0.278c6.155-1.547,35.949-19.855,62.185-37.309     c0.818-0.54,1.813-0.722,2.771-0.497c0.946,0.222,1.759,0.828,2.244,1.671c1.273,2.207,0.491,4.487-1.929,7.231     c7.963-4.785,15.688-9.466,22.39-13.557c0.819-0.497,1.789-0.643,2.717-0.406c0.922,0.233,1.711,0.831,2.184,1.655     c0.879,1.513,0.552,2.75-0.146,3.724c0.419,0.294,0.771,0.679,1.024,1.131c0.067,0.119,0.128,0.237,0.183,0.358     c3.487-1.47,5.997-1.989,7.731-1.589c1.358,0.306,2.469,1.107,3.123,2.25c1.638,2.826-0.624,4.451-3.238,6.34     c-1.479,1.064-3.626,2.583-6.276,4.448c-1.661,1.164-3.523,2.468-5.543,3.881l34.434-19.882c1.649-0.949,3.729-0.424,4.749,1.158     c4.548-1.731,5.942-1.404,6.974-1.161c1.262,0.291,2.292,1.037,2.905,2.098c0.976,1.689,0.394,3.851-1.292,4.827     c-1.116,0.643-2.438,0.606-3.493,0.027c-1.377,0.191-3.814,1.14-7.113,2.714c-6.229,6.756-23.136,16.052-52.791,31.571     c-2.311,1.201-4.729,2.469-7.192,3.767c-11.929,7.574-24.385,15.676-36.435,23.699c-0.818,0.546-1.807,0.728-2.766,0.503     c-0.951-0.224-1.765-0.83-2.249-1.68c-0.364-0.618-0.564-1.31-0.601-2.025l-5.895,3.396     C275.563,305.237,274.957,305.4,274.345,305.4z" style="fill:#25314C;"/></g><g><path d="M287.734,344.019c-0.516,0-0.873-0.085-1.194-0.157c-1.116-0.273-2.038-0.959-2.59-1.91     c-0.776-1.335-0.576-2.984,0.4-4.088c-0.527,0.104-1.062,0.091-1.589-0.042c-0.922-0.23-1.71-0.831-2.189-1.649     c-0.491-0.855-0.97-2.25-0.455-4.082c0.219-0.758,0.625-1.559,1.226-2.413c-0.321,0.018-0.679-0.024-1.007-0.115     c-0.916-0.237-1.691-0.831-2.171-1.644c-1.152-2.008-0.497-3.487,1.383-5.143c-6.452,3.256-10.237,4.317-12.523,3.777     c-1.279-0.297-2.335-1.066-2.953-2.152c-0.686-1.183-1.219-2.092,1.364-7.701c-5.315,3.517-6.995,4.257-8.896,3.82     c-1.022-0.236-1.907-0.886-2.423-1.783c-0.634-1.092-0.63-2.438,0-3.542l0.379-0.643c-0.77,0.182-1.283,0.109-1.816-0.006     c-1.016-0.23-1.893-0.873-2.408-1.765c-0.977-1.692-0.394-3.852,1.292-4.827c0.555-0.315,1.155-0.474,1.75-0.474     c0.828-0.4,3.035-1.625,8.49-5.373c0.782-0.545,1.765-1.206,3.28-0.86c1.092,0.254,2.002,1.006,2.444,2.037     c0.448,1.031,0.376,2.208-0.183,3.178l-0.406,0.704c5.021-3.385,6.404-4.088,8.229-3.676c0.958,0.219,1.856,0.886,2.354,1.74     c0.612,1.068,0.63,2.384,0.03,3.47c-1.771,3.208-3.693,6.864-5.07,9.696c12.057-5.275,43.827-26.18,67.891-42.008     c51.396-33.812,68.357-44.112,74.295-42.711c1.255,0.3,2.28,1.046,2.893,2.107c0.952,1.646,0.425,3.754-1.183,4.761     l-13.972,8.733c0.291,0.251,0.545,0.552,0.752,0.9c0.685,1.161,0.63,2.553-0.024,3.629c0.503,0.309,0.922,0.74,1.225,1.25     c0.497,0.87,0.982,2.295,0.461,4.166c-0.321,1.122-1.056,2.338-2.226,3.678c0.855,0.304,1.559,0.88,2.008,1.656     c0.703,1.219,0.6,2.698-0.17,3.79c0.212-0.134,0.418-0.261,0.618-0.395c1.644-1.049,3.827-0.57,4.882,1.08     c1.049,1.637,0.57,3.82-1.073,4.875c-0.279,0.176-28.29,18.078-56.896,35.507C300.889,340.531,291.01,344.019,287.734,344.019z" style="fill:#25314C;"/></g><g><path d="M261.045,356.826c-1.219,0-2.404-0.637-3.059-1.771c-0.389-0.667-0.404-0.697-0.701-3.681     c-0.758-0.255-1.437-0.765-1.886-1.504c-1.025-1.662-0.506-3.833,1.155-4.857c2.353-1.45,3.147-1.929,4.685-1.541     c0.916,0.243,1.698,0.831,2.177,1.649c0.353,0.612,0.413,0.722,0.674,3.257c1.013,0.164,1.935,0.764,2.486,1.717     c0.977,1.691,0.4,3.851-1.292,4.833l-2.474,1.419C262.252,356.669,261.646,356.826,261.045,356.826z" style="fill:#25314C;"/></g><g><path d="M243.468,363.249c-0.279,0-0.524-0.061-0.831-0.146c-1.125-0.304-2.028-1.141-2.419-2.232     c-0.388-1.104-0.212-2.316,0.473-3.262c0.903-1.244,1.84-2.554,2.765-3.857l-4.008,2.311c-1.34,0.776-3.035,0.588-4.169-0.473     c-1.14-1.056-1.453-2.741-0.77-4.13l2.565-5.265c-0.155-0.012-0.312-0.036-0.482-0.072c-0.949-0.225-1.765-0.831-2.253-1.68     c-0.785-1.358-0.792-2.377,0.027-3.639c-0.376-0.261-0.707-0.588-0.974-0.988c-1.067-1.638-0.612-3.827,1.022-4.895     c12.213-7.986,13.121-7.769,14.636-7.41c0.946,0.218,1.811,0.867,2.295,1.704c1.362,2.353,0.258,4.3-3.266,7.847     c0.379,0.922,0.352,1.978-0.094,2.881l-2.062,4.221l6.479-3.735c1.692-0.977,3.848-0.4,4.824,1.292     c0.792,1.37,1.246,2.152-1.78,7.028c1.07-0.625,2.095-1.219,3.029-1.759c1.687-0.988,3.849-0.406,4.831,1.273     c0.976,1.686,0.406,3.845-1.28,4.833c0,0-4.156,2.414-8.326,4.827C246.115,362.321,244.523,363.249,243.468,363.249z" style="fill:#25314C;"/></g><g><path d="M243.289,370.447c-0.379,0-0.652-0.066-0.892-0.115c-0.643-0.146-1.216-0.442-1.692-0.843     c-1.201-0.552-5.019-1.88-8.596-3.057c-0.413,0.249-0.895,0.558-1.344,0.849c-1.643,1.062-3.826,0.595-4.888-1.043     c-1.061-1.637-0.591-3.82,1.043-4.882c2.823-1.831,3.987-2.596,5.683-2.177c0.133,0.03,0.273,0.066,0.403,0.121     c6.076,1.947,9.148,3.063,10.794,3.851c3.605-1.449,14.773-8.508,23.951-14.827c1.613-1.104,3.809-0.691,4.913,0.91     c1.109,1.606,0.703,3.809-0.904,4.912C250.685,368.646,245.363,370.447,243.289,370.447z M228.731,364.383     c0.488,0.849,1.201,1.347,1.943,1.589C229.853,365.699,229.165,365.129,228.731,364.383z" style="fill:#25314C;"/></g><g><path d="M203.379,352.303c-0.352,0-0.676-0.036-0.988-0.109c-1.125-0.248-2.056-0.922-2.62-1.898     c-1.376-2.389-0.482-4.499,4.727-10.212l0.516-1.971l2.905-1.681l-2.905,1.681l-1.453-3.215c0.8-0.399,7.238-4.142,12.89-7.465     c0.81-0.479,1.783-0.612,2.689-0.37c0.91,0.236,1.689,0.831,2.159,1.644c1.167,2.025,0.825,3.051-2.383,6.489     c1.443-0.94,2.014-1.05,3.169-0.795c0.967,0.213,1.807,0.825,2.301,1.686c0.976,1.692,0.397,3.852-1.292,4.821     c-0.067,0.037-0.134,0.073-0.2,0.109c-0.361,0.236-1.059,0.734-1.968,1.371C209.628,350.35,205.817,352.303,203.379,352.303z" style="fill:#25314C;"/></g><g><path d="M180.689,327.584c-0.318,0-0.567-0.061-0.849-0.14c-0.928-0.229-1.75-0.843-2.226-1.673     c-0.977-1.692-0.397-3.846,1.292-4.821c0.379-0.225,0.779-0.364,1.189-0.431c2.247-1.031,11.637-6.629,19.876-11.734     c0.813-0.504,1.795-0.649,2.72-0.425c0.928,0.236,1.725,0.837,2.201,1.661c0.391,0.686,0.731,1.268,0.421,2.93     c1.365-0.485,2.047-0.346,2.565-0.243c1.107,0.213,2.062,0.892,2.614,1.85c0.977,1.687,0.397,3.845-1.292,4.821     c-0.652,0.376-1.377,0.521-2.071,0.461c-1.307,0.674-4.13,2.584-6.607,4.519c-1.277,0.988-3.069,0.982-4.342-0.013     c-1.276-0.994-1.713-2.729-1.055-4.209c0.015-0.042,0.034-0.078,0.048-0.115C184.549,326.462,182.026,327.584,180.689,327.584z" style="fill:#25314C;"/></g><g><path d="M218.931,412.219c-0.412,0-0.785-0.049-1.128-0.121c-1.289-0.291-2.35-1.062-2.98-2.153     c-0.352-0.606-0.694-1.516-0.646-2.687c-6.313,2.426-8.023,2.014-9.163,1.74c-1.319-0.315-2.396-1.092-3.026-2.183     c-0.491-0.855-0.606-1.874-0.318-2.808c0.291-0.94,0.958-1.717,1.844-2.141c10.513-5.082,21.777-10.644,33.396-16.489     c13.305-9.291,34.658-22.93,69.079-43.258c43.111-25.452,86.224-49.224,86.654-49.461c0.77-0.424,1.643-0.533,2.438-0.357     c2.201-2.189,3.778-4.142,4.646-5.821c-21.596,7.731-133.932,76.096-203.817,119.995c-0.81,0.516-1.795,0.667-2.729,0.437     c-0.931-0.23-1.725-0.831-2.207-1.661c-1.131-1.953-0.776-3.827,1.255-6.289c-14.69,8.472-16.073,8.126-17.186,7.854     c-0.931-0.23-1.819-0.897-2.295-1.723c-0.943-1.631-0.437-3.718,1.146-4.73c2.341-1.51,4.706-3.05,7.068-4.591l-9.748,5.628     c-1.583,0.916-3.575,0.461-4.624-0.988c-4.112,1.595-5.604,1.279-6.592,1.073c-1.431-0.303-2.599-1.122-3.287-2.316     c-0.209-0.363-0.346-0.74-0.418-1.128c-3.642,2.014-5.228,2.329-6.638,2.007c-1.073-0.248-1.962-0.903-2.504-1.837     c-0.974-1.687-0.395-3.851,1.292-4.827c0.482-0.273,0.958-0.552,1.44-0.831c-1.216,0.255-2.165,0.279-2.899,0.104     c-1.198-0.285-2.177-1.001-2.762-2.014c-0.546-0.946-0.606-2.038-0.258-2.996c-8.075,4.3-9.218,4.015-10.455,3.712     c-1.016-0.255-1.858-0.886-2.368-1.777c-0.473-0.818-0.601-1.783-0.352-2.698c0.251-0.91,0.852-1.68,1.674-2.147     c1.953-1.104,3.927-2.226,5.907-3.359c-0.892-0.225-1.692-0.801-2.189-1.655c-0.421-0.728-0.631-1.353-0.615-1.946l-12.111,6.992     c-0.813,0.467-1.777,0.594-2.68,0.352c-0.904-0.243-1.677-0.837-2.147-1.644c-1.01-1.753-0.949-3.505,0.367-5.567     c-0.497,0.104-1.016,0.104-1.519-0.012c-0.958-0.219-1.78-0.831-2.274-1.68c-1.119-1.941-0.561-3.166,1.101-4.646l-0.027-0.043     c0.012-0.006,0.127-0.085,0.34-0.23c0.622-0.521,1.379-1.091,2.237-1.728c1.031-0.776,2.326-1.741,3.833-2.869     c-2.465,1.231-4.018,1.541-5.318,1.256c-0.971-0.219-1.798-0.74-2.38-1.504c-6.801,3.28-8.25,2.935-9.381,2.668     c-1.134-0.267-2.068-0.952-2.629-1.923c-1.056-1.819-0.704-3.656,1-5.864c-1.589,0.697-3.481,0.14-4.421-1.364     c-0.694-1.104-0.698-2.456-0.122-3.535c-0.437,0.285-0.87,0.569-1.304,0.861c-0.813,0.533-1.81,0.709-2.762,0.484     c-0.946-0.224-1.756-0.824-2.244-1.667c-1.001-1.741-0.81-3.408,0.545-5.282c-7.632,4.087-8.363,3.899-9.387,3.633     c-0.913-0.237-1.731-0.861-2.205-1.674c-0.583-1.007-0.722-2.208-0.391-3.378c0.343-1.219,1.255-2.492,3.065-4.058     c-0.461-0.327-0.849-0.745-1.137-1.249c-0.215-0.37-0.354-0.771-0.424-1.164l-2.55,1.467c-1.655,0.953-3.775,0.413-4.772-1.219     c-1.007-1.625-0.521-3.766,1.085-4.803l4.16-2.698c-1.528,0.242-2.814,0.255-3.851,0.006c-2.089-0.485-3.181-1.716-3.727-2.662     c-1.747-3.026,1.158-4.857,2.893-5.949c1.161-0.74,2.883-1.789,5.079-3.111c2.929-1.753,6.705-3.996,11.131-6.61     c-11.077,5.749-18.369,9.424-18.518,9.503c-1.677,0.837-3.711,0.23-4.648-1.389c-0.194-0.333-0.324-0.679-0.4-1.03     c-0.785,0.115-1.404,0.097-1.901-0.031c-1.095-0.272-1.999-0.945-2.544-1.886c-0.47-0.818-0.598-1.782-0.352-2.692     c0.246-0.91,0.846-1.686,1.662-2.146c0.643-0.37,1.285-0.729,1.931-1.098c-1.261,0.036-2.517-0.606-3.184-1.783     c-0.967-1.686-0.385-3.839,1.297-4.809l27.987-16.156c31.247-18.46,59.786-36.765,72.284-47.104     c-3.569,2.046-7.896,4.69-12.629,7.671c-6.798,5.04-17.259,11.992-33.406,21.683c-41.107,26.968-54.985,35.24-60.331,33.954     c-1.228-0.291-2.241-1.03-2.844-2.08c-0.476-0.818-0.601-1.807-0.343-2.723c0.409-1.449,0.409-1.449,4.991-3.966     c23.708-12.99,41.692-23.324,55.34-31.547c0.916-0.589,1.816-1.189,2.705-1.765c12.368-8.136,22.044-14.434,29.652-19.233     c1.489-1.101,2.768-2.083,3.869-2.959c-18.481,9.472-59.604,34.63-96.575,58.403c-0.816,0.521-1.804,0.691-2.748,0.461     c-0.937-0.225-1.74-0.831-2.226-1.662c-0.376-0.66-0.746-1.612-0.743-2.825c-1.064-0.389-1.938-1.104-2.489-2.063     c-0.473-0.818-0.598-1.801-0.343-2.711c0.251-0.909,0.864-1.691,1.695-2.141c4.03-2.231,8.084-4.499,12.12-6.792     c7.575-5.882,20.719-14.566,43.721-27.56c3.79-2.141,7.583-4.248,11.28-6.279c6.28-4.342,11.228-8.093,14.285-10.934     c-12.238,5.709-39.649,23.748-55.616,34.251c-25.346,16.684-26.447,17.174-28.772,16.629c-0.949-0.23-1.838-0.886-2.323-1.723     c-0.934-1.625-0.446-3.693,1.119-4.725l2.766-1.813c-0.439-0.261-0.828-0.619-1.128-1.067c-1.073-1.595-0.676-3.748,0.888-4.857     l1.75-1.237c-1.289,0.157-2.61-0.395-3.375-1.534c-0.934-1.396-0.746-3.232,0.385-4.409c-2.565,1.067-3.954,1.213-5.04,0.946     c-1.064-0.261-1.94-0.916-2.474-1.838c-1.546-2.687-0.427-5.252,3.836-9.193c-0.215-0.019-0.428-0.049-0.634-0.097     c-1.188-0.268-2.168-0.974-2.762-2.002c-1.816-3.153,1.252-5.47,4.221-7.713c0.094-0.073,0.194-0.149,0.294-0.222     c-0.479-1.07-0.4-2.313,0.23-3.323c0.228-0.361,0.458-0.73,0.688-1.107c-8.909,5.273-9.388,5.146-10.755,4.794     c-0.918-0.233-1.716-0.84-2.195-1.665c-0.746-1.292-0.594-2.917,0.373-4.057l4.333-5.082c-0.949-1.688-0.361-3.833,1.325-4.8     c0.23-0.133,0.473-0.236,0.718-0.315c0.834-0.434,3.221-1.871,5.167-3.083c1.486-0.919,3.411-0.622,4.545,0.697     c0.655,0.761,0.931,1.726,0.834,2.666c1.083-0.652,2.162-1.304,3.226-1.947c0.813-0.491,1.789-0.634,2.708-0.403     c0.918,0.237,1.707,0.834,2.18,1.656c0.54,0.931,0.907,1.567,0.173,3.517c4.33-2.923,6.683-3.972,8.788-3.523     c1.155,0.246,2.11,0.934,2.695,1.941c0.037,0.069,0.076,0.136,0.109,0.206c4.33-2.817,5.885-3.323,7.562-2.95     c1.04,0.23,1.941,0.882,2.472,1.798c2.125,3.687-0.749,6.737-11.307,14.682c4.891-3.053,9.639-6.067,13.39-8.45     c17.195-10.919,17.201-10.922,19.166-10.437c0.934,0.23,1.762,0.849,2.241,1.68c1.564,2.714-0.461,4.285-3.029,6.274     c-0.1,0.079-0.209,0.161-0.318,0.245c11.216-6.4,11.753-6.252,13.072-5.909c0.916,0.236,1.71,0.84,2.18,1.658     c0.357,0.622,0.509,1.301,0.47,1.965c8.836-4.621,10.17-4.293,11.407-3.99c0.846,0.209,1.577,0.67,2.104,1.319     c4.278-1.88,7.229-2.577,9.063-2.146c1.295,0.306,2.353,1.08,2.984,2.165c0.352,0.61,0.688,1.489,0.685,2.62     c8.618-5.13,12.896-6.726,15.489-6.134c1.234,0.285,2.25,1.025,2.859,2.077c0.243,0.424,0.395,0.885,0.452,1.362     c1.783-0.461,2.526-0.282,3.178-0.119c1.125,0.267,2.049,0.949,2.604,1.911c0.23,0.4,0.458,0.921,0.579,1.562     c5.082-2.617,7.908-3.393,9.715-2.957c1.161,0.273,2.113,0.97,2.687,1.968c0.488,0.846,0.964,2.247,0.452,4.13     c-0.233,0.846-0.555,2.022-2.271,4.115l11.164-6.446c1.686-0.977,3.848-0.395,4.824,1.298c0.47,0.81,0.643,1.755,0.513,2.713     c10.904-6.479,11.622-6.294,13.111-5.925c0.236,0.058,0.47,0.146,0.691,0.255c10.94-5.146,13.205-4.603,14.676-4.257     c1.304,0.31,2.359,1.076,2.986,2.159c0.764,1.325,0.889,2.632,0.182,4.163c8.542-5.091,11.653-6.104,13.69-5.622     c1.101,0.255,2.007,0.922,2.559,1.874c0.94,1.628,0.442,3.708-1.134,4.73l-68.445,44.397c0.652,0.278,1.231,0.752,1.625,1.406     c0.452,0.74,0.6,1.577,0.479,2.371c0.938,0.219,1.741,0.831,2.226,1.668c0.437,0.758,0.867,1.929,0.661,3.451     c2.211-1.316,4.363-2.596,6.459-3.852c0.815-0.485,1.789-0.624,2.705-0.394c0.916,0.242,1.695,0.837,2.168,1.655     c2.05,3.554-0.27,7.296-10.073,14.203c0.276,0.261,0.515,0.569,0.709,0.909c0.934,1.613,0.718,2.741-0.349,3.905     c1.332-0.121,2.668,0.491,3.39,1.704c0.989,1.674,0.458,3.814-1.186,4.827c-19.5,11.941-39.931,25.125-54,34.949     c14.272-8.351,33.793-20.625,51.923-32.554c0.81-0.539,1.811-0.715,2.756-0.491c0.946,0.23,1.759,0.831,2.244,1.68     c0.648,1.122,0.806,2.469,0.437,3.797c-0.052,0.176-0.109,0.352-0.182,0.54c0.209,0.236,0.397,0.497,0.558,0.775     c0.897,1.553,0.485,3.536-0.958,4.604c-3.484,2.577-7.22,5.349-11.074,8.199c0.764-0.062,1.243,0.048,1.667,0.139     c1.174,0.268,2.135,0.971,2.711,1.971c1.729,2.99,0.349,5.313-7.053,10.455c0.782,0.225,1.495,0.71,1.98,1.438     c0.452,0.68,0.64,1.462,0.582,2.231l20.149-11.631c0.813-0.474,1.774-0.595,2.681-0.358c0.903,0.249,1.677,0.844,2.144,1.65     c0.452,0.782,0.652,1.68,0.591,2.607c1.525-0.801,1.904-0.704,2.717-0.504c0.928,0.23,1.725,0.831,2.205,1.662     c1.846,3.202-0.849,5.506-7.526,10.648c5.938-3.802,11.234-7.24,14.998-9.685c15.218-9.885,15.218-9.879,17.004-9.454     c0.94,0.225,1.762,0.831,2.244,1.674c2.377,4.117-1.992,8.745-10.446,15.27c0.003,0.007,0.012,0.013,0.015,0.024     c1.116,1.929,0.604,3.712-1.346,5.858c0.239,0.2,0.449,0.431,0.634,0.697c0.512,0.734,0.7,1.602,0.601,2.426l6.758-3.899     c1.689-0.977,3.851-0.4,4.828,1.292c0.928,1.607,1.919,3.323-4.833,9.442c0.519,0.31,0.952,0.746,1.261,1.279     c1.001,1.734,0.773,3.414-0.661,5.422c18.333-11.347,41.95-25.871,65.747-40.231c102.888-62.087,108.474-60.686,111.476-59.94     c1.146,0.285,2.092,0.989,2.656,1.965c0.745,1.292,1.443,3.445,0.539,6.404c-0.788,2.547-2.48,8.035-21.704,22.026     c0.601,0.49,1.007,1.03,1.273,1.504c0.297,0.503,0.57,1.176,0.673,2.019c0.092-0.042,0.176-0.078,0.268-0.108     c15.021-8.6,15.306-8.539,16.725-8.163c0.91,0.243,1.687,0.843,2.153,1.649c0.51,0.873,0.631,1.893,0.358,2.869     c-0.273,0.97-0.861,1.873-3.317,3.638c0.03,0.043,0.054,0.092,0.078,0.128c0.595,1.024,1.159,2.711,0.51,4.937     c-1.759,6.021-13.087,14.215-32.305,25.239c-0.922,2.748-4.196,5.779-9.055,9.54c-4.147,3.214-9.891,7.229-17.138,11.965     c-0.109,1.091-0.722,2.122-1.746,2.717c-0.916,0.521-1.959,0.601-2.887,0.291c-16.599,10.637-35.35,21.649-43.366,26.355     c-1.874,1.098-3.1,1.813-3.487,2.05c-0.788,0.564-1.783,0.776-2.729,0.576c-0.765-0.146-1.438-0.533-1.947-1.098     c-23.529,13.384-27.205,12.553-29.227,12.093c-1.368-0.315-2.484-1.116-3.142-2.25c-0.643-1.116-0.786-2.444-0.407-3.742     c0.133-0.454,0.349-0.922,0.658-1.419c-7.726,5.203-12.447,8.441-12.574,8.521c-0.813,0.563-1.822,0.758-2.78,0.54     c-0.961-0.225-1.783-0.831-2.277-1.687c-0.088-0.146-0.164-0.297-0.23-0.448c-3.441,1.795-5.418,2.826-5.503,2.868     c-1.64,0.849-3.645,0.291-4.612-1.255C224.486,411.061,221.16,412.219,218.931,412.219z M227.697,401.066     c-0.516,0.431-0.991,0.83-1.431,1.207c2.308-1.231,5.042-2.802,8.099-4.652C231.939,398.901,229.723,400.047,227.697,401.066z      M295.824,383.419c-8.551,4.572-16.459,8.957-22.347,12.56C279.372,392.988,287.031,388.658,295.824,383.419z M368.518,332.764     c-9.557,6.713-24.19,16.004-46.646,28.999c17.811-9.272,35.932-18.763,50.207-27.168c17.113-10.079,22.62-15.143,24.396-17.423     c-0.066,0.018-0.146,0.024-0.218,0.042C390.646,320.525,381.98,325.371,368.518,332.764z M318.051,350.502     c-5.465,3.645-11.031,7.392-16.604,11.17c3.196-1.801,6.519-3.663,9.981-5.591c0.438-0.279,0.874-0.564,1.322-0.837     c31.443-19.952,51.201-31.226,63.815-37.545c1.183-1.086,2.007-1.946,2.565-2.626c-0.958,0.219-2.299,0.631-4.166,1.396     C362.054,325.086,343.836,336.184,318.051,350.502z M209.438,244.466c-0.112,0.291-0.252,0.613-0.452,0.982     c1.058-0.758,2.038-1.482,2.95-2.171C211.145,243.641,210.314,244.039,209.438,244.466z" style="fill:#25314C;"/></g><g><path d="M450.26,218.016c-0.267,0-0.491-0.058-0.771-0.13c-1.122-0.303-2.025-1.146-2.413-2.244     c-0.389-1.104-0.206-2.329,0.484-3.266c0.4-0.543,0.819-1.107,1.226-1.68c-0.128-0.015-0.249-0.042-0.37-0.072     c-0.922-0.237-1.716-0.831-2.195-1.659c-0.23-0.407-1.328-2.202-2.414-3.975c-0.169-0.276-0.339-0.555-0.497-0.822     c-12.074,7.417-12.534,7.296-14.111,6.901c-0.935-0.233-1.74-0.846-2.214-1.677c-0.733-1.264-0.612-2.853,0.315-3.987     c0.382-0.473,0.776-0.958,1.165-1.449l-6.119,3.539c-1.692,0.97-3.852,0.394-4.827-1.295c-0.213-0.364-0.37-0.646-0.449-1.067     c-7.077,4.779-9.091,4.4-10.066,4.206c-1.207-0.23-2.208-0.931-2.809-1.971c-0.352-0.609-0.497-1.286-0.467-1.947     c-8.12,5.292-9.405,5.752-11.243,5.322c-0.946-0.222-1.855-0.892-2.347-1.734c-0.843-1.465-0.528-3.327,0.746-4.433     c0.054-0.045,0.108-0.091,0.151-0.14c-5.488,3.081-7.187,3.341-8.642,2.984c-1.043-0.249-1.904-0.886-2.438-1.798     c-0.709-1.234-0.6-2.756,0.225-3.869c-15.646,9.336-16.635,9.084-18.229,8.688c-0.928-0.234-1.807-0.889-2.28-1.716     c-0.903-1.556-0.485-3.536,0.958-4.606c0.073-0.048,0.14-0.103,0.206-0.155c-0.896-0.246-1.655-0.837-2.122-1.644     c-0.406-0.7-0.643-1.119-0.473-2.022l-18.182,10.492c-0.807,0.47-1.776,0.594-2.674,0.354c-0.91-0.243-1.68-0.833-2.147-1.646     c-1.213-2.102-0.618-4.109,2.032-7.129c-3.063,1.983-6.168,4.054-9.121,6.062c-0.807,0.549-1.808,0.736-2.766,0.524     c-0.945-0.209-1.765-0.807-2.268-1.644c-1.249-2.123-0.643-2.884,2.771-7.11l2.031-2.514c-0.042,0.03-0.085,0.061-0.127,0.094     c-8.436,6.131-10.74,7.714-13.208,7.187c-1.062-0.225-1.978-0.889-2.518-1.813c-0.048-0.088-0.103-0.173-0.139-0.258     c-12.189,7.214-13.833,6.816-14.949,6.553c-1.031-0.246-1.886-0.876-2.407-1.777c-0.746-1.289-1.273-2.21,1.243-5.992     l-9.867,5.698c-1.504,0.867-3.414,0.515-4.512-0.828c-1.092-1.346-1.043-3.29,0.109-4.584c0.157-0.173,0.315-0.349,0.473-0.531     c-3.444,2.183-7.064,4.542-10.448,6.807c-0.807,0.54-1.813,0.722-2.76,0.503c-0.952-0.224-1.776-0.828-2.262-1.673     c-1.128-1.953-0.74-3.469,1.844-6.359c-19.612,11.52-20.17,11.377-21.623,10.995c-0.916-0.236-1.707-0.84-2.18-1.655     c-0.567-0.977-0.764-1.838-0.537-2.738c-3.214,1.477-4.039,1.28-4.745,1.11c-1.013-0.24-1.853-0.864-2.362-1.755     c-0.215-0.37-0.357-0.764-0.428-1.171l-9.045,5.222c-1.477,0.855-3.354,0.534-4.457-0.767c-1.107-1.301-1.125-3.199-0.049-4.521     l4.018-4.927c-12.004,7.847-15.421,9.396-18.023,8.79c-1.104-0.257-2.013-0.928-2.562-1.883     c-1.334-2.304-0.516-3.178,3.405-7.368c0.719-0.77,1.777-1.901,2.996-3.208c-5.519,3.369-11.919,7.444-17.902,11.383     c-1.598,1.049-3.735,0.646-4.83-0.913c-0.24-0.337-0.413-0.704-0.516-1.083c-7.095,4.193-8.145,4.248-9.639,3.878     c-0.931-0.233-1.819-0.895-2.302-1.722c-0.655-1.14-0.618-2.526,0.049-3.611l-5.115,2.95c-1.422,0.822-3.223,0.555-4.345-0.643     c-1.122-1.198-1.271-3.014-0.358-4.379c1.319-1.974,2.705-4.114,3.981-6.155c-1.646,1.07-3.32,2.18-4.824,3.178     c-14.585,9.658-17.159,11.025-19.691,10.425c-1.046-0.246-1.911-0.882-2.441-1.798c-1.443-2.568,0.685-4.385,1.379-4.979     c0.712-0.609,1.392-1.195,2.047-1.759c-4.8,2.951-9.982,6.207-14.918,9.378c-0.813,0.521-1.804,0.688-2.744,0.461     c-0.937-0.228-1.74-0.831-2.226-1.665c-0.228-0.391-0.403-0.785-0.516-1.188c-5.722,3.444-7.847,4.066-9.669,3.639     c-1.085-0.255-1.983-0.916-2.532-1.862c-0.864-1.495-0.519-3.402,0.821-4.5c3.193-2.613,6.55-5.473,9.646-8.217     c-4.224,2.674-8.447,5.427-11.416,7.365c-12.259,8.002-12.493,8.148-14.433,7.687c-0.943-0.228-1.786-0.849-2.268-1.689     c-0.364-0.63-0.513-1.331-0.467-2.013c-0.382,0.243-0.758,0.482-1.137,0.725c-1.531,0.977-3.554,0.637-4.676-0.792     c-1.125-1.425-0.982-3.472,0.325-4.73l0.382-0.367c-3.15,1.855-6.195,3.663-8.845,5.239c-1.534,0.913-3.505,0.54-4.597-0.87     c-1.095-1.41-0.968-3.414,0.3-4.669c0.115-0.112,0.225-0.228,0.34-0.339c-14.885,9.151-17.311,9.839-19.427,9.321     c-1.025-0.249-1.874-0.886-2.39-1.78c-1.11-1.926-0.622-3.866,1.28-6.41c-8.927,6.013-12.599,7.744-15.361,7.132     c-1.204-0.27-2.192-0.982-2.792-2.022c-1.286-2.229-0.118-4.069,1.771-5.758c-0.027-0.042-0.055-0.085-0.082-0.127     c-0.749-1.301-0.594-2.935,0.385-4.072c0.224-0.258,0.446-0.516,0.673-0.782c-7.165,4.139-7.747,3.993-8.936,3.684     c-0.925-0.233-1.729-0.846-2.205-1.667c-0.779-1.355-0.579-3.066,0.5-4.2l6.037-6.359c-0.74-1.64-0.13-3.599,1.458-4.515     c0.258-0.151,0.53-0.267,0.803-0.343c0.919-0.476,3.608-2.101,5.801-3.472c1.513-0.943,3.487-0.619,4.612,0.758     c0.616,0.752,0.873,1.695,0.776,2.605c1.11-0.667,2.22-1.34,3.311-2.007c0.816-0.491,1.786-0.637,2.711-0.403     c0.921,0.239,1.71,0.834,2.183,1.659c0.527,0.916,0.922,1.598,0.34,3.111c4.46-2.85,6.71-3.657,8.705-3.22     c1.173,0.255,2.141,0.955,2.729,1.974c0.03,0.055,0.067,0.112,0.094,0.17c4.309-2.778,5.973-3.33,7.635-2.966     c1.049,0.233,1.953,0.892,2.483,1.811c1.762,3.053-0.418,5.743-6.601,11.752c4.703-2.896,9.554-5.964,13.154-8.242     c13.044-8.247,13.044-8.247,14.867-7.802c0.931,0.23,1.75,0.843,2.229,1.677c1.189,2.068,0.74,2.951-2.334,6.095     c10.418-6.021,10.937-5.879,12.189-5.561c0.916,0.239,1.704,0.843,2.177,1.658c0.509,0.883,0.601,1.914,0.31,2.838     c9.515-5.413,10.74-5.106,11.795-4.854c0.934,0.23,1.844,0.9,2.326,1.734c0.109,0.188,0.197,0.382,0.267,0.576     c5.279-2.917,7.344-3.357,9.002-2.962c1.083,0.261,1.983,0.922,2.529,1.865c0.673,1.167,1.389,2.411-0.761,5.625     c12.535-8.284,15.112-9.497,17.472-8.948c1.055,0.246,1.922,0.888,2.453,1.807c0.352,0.606,0.5,1.276,0.47,1.932     c2.238-0.889,2.914-0.725,3.511-0.583c1.004,0.246,1.837,0.867,2.35,1.75c0.609,1.059,0.74,2.102,0.342,3.302     c6.944-4.442,8.551-4.985,10.361-4.563c1.007,0.24,1.88,0.882,2.393,1.765c0.728,1.261,1.346,2.344-1.953,8.327l11.45-6.613     c1.692-0.974,3.851-0.397,4.827,1.292c0.719,1.25,0.776,2.326-0.045,3.848c0.358-0.228,0.707-0.443,1.034-0.649     c11-6.883,11-6.88,12.78-6.44c0.931,0.233,1.747,0.846,2.223,1.677c0.07,0.118,0.13,0.233,0.188,0.352     c10.901-6.361,12.48-5.992,13.566-5.731c1.037,0.246,1.896,0.879,2.42,1.786c1.088,1.886,1.289,2.905-3.521,8.518     c1.207-0.801,2.338-1.553,3.326-2.214c11.589-7.729,12.402-8.159,14.442-7.684c0.955,0.219,1.834,0.867,2.323,1.717     c0.731,1.27,0.604,2.859-0.321,3.996l-5.403,6.625l15.649-9.036c1.57-0.907,3.578-0.476,4.64,1     c0.403,0.561,0.618,1.207,0.657,1.853c2.063-1.31,4.13-2.644,6.155-3.96c0.807-0.527,1.808-0.7,2.748-0.473     c0.945,0.224,1.752,0.828,2.237,1.667c0.716,1.243,0.831,2.429,0.285,3.748c4.778-2.817,9.503-5.616,13.493-7.993     c0.807-0.479,1.783-0.619,2.698-0.379c0.916,0.237,1.692,0.834,2.171,1.653c0.867,1.51,0.746,2.947-0.479,4.845     c5.506-2.905,6.695-2.629,7.544-2.432c1.049,0.243,1.916,0.882,2.438,1.798c0.722,1.283,0.722,2.183,0.055,3.317l8.254-4.761     c1.492-0.867,3.396-0.519,4.5,0.825c1.098,1.337,1.062,3.275-0.085,4.576c-1.432,1.613-2.923,3.333-4.36,5.021     c6.052-3.636,13.548-8.375,20.491-12.932c0.818-0.534,1.808-0.713,2.754-0.485c0.934,0.221,1.734,0.81,2.225,1.628     c3.457-2.08,5.737-2.85,7.617-2.45c1.226,0.261,2.238,0.988,2.851,2.05c0.728,1.267,0.606,2.853-0.315,3.99     c-0.601,0.743-1.231,1.519-1.886,2.323c12.456-7.563,14.463-7.102,15.579-6.847c1.086,0.249,1.977,0.903,2.522,1.84     c1.152,1.996,0.722,3.533-1.765,6.18l4.925-2.85c1.346-0.779,3.05-0.579,4.178,0.482c0.801,0.749,1.195,1.801,1.11,2.847     l13.457-7.765c0.806-0.47,1.776-0.598,2.674-0.355c0.91,0.243,1.68,0.834,2.146,1.646c0.57,0.988,0.771,1.95,0.461,3.054     c2.371-1.447,4.882-2.999,7.563-4.655c5.828-3.602,5.822-3.599,7.313-3.226c0.922,0.236,1.71,0.837,2.189,1.662     c1.007,1.752,0.952,2.893-1.838,6.083c1.116-0.719,2.099-1.355,2.894-1.874c6.688-4.339,6.688-4.339,8.277-3.954     c0.946,0.228,1.759,0.834,2.238,1.674c0.588,1.01,1.14,1.965,0.048,4.079c7.568-4.721,10.085-5.622,12.129-5.14     c1.073,0.251,1.971,0.907,2.517,1.843c1.449,2.523,0.649,4.254-6.386,10.37c0.315,0.616,0.449,1.319,0.364,2.029l13.208-7.626     c1.686-0.976,3.845-0.4,4.821,1.292c0.654,1.134,1.14,1.965-0.516,4.903c0.716-0.324,1.534-0.4,2.311-0.203     c0.922,0.233,1.723,0.831,2.201,1.662c0.212,0.373,1.243,2.065,2.292,3.781c0.213,0.349,0.425,0.695,0.625,1.031     c6.392-3.866,6.646-3.799,8.103-3.426c0.921,0.239,1.722,0.843,2.188,1.67c0.491,0.853,0.952,1.65,0.2,3.721     c0.419-0.243,0.818-0.473,1.201-0.694c1.686-0.985,3.845-0.416,4.827,1.268c0.988,1.686,0.418,3.851-1.268,4.83     C453.662,216.755,451.49,218.016,450.26,218.016z" style="fill:#25314C;"/></g><g><path d="M158.203,171.608c-1.131,0-2.235-0.54-2.914-1.534c-1.043-1.522-0.74-3.59,0.695-4.748     c3.584-2.887,7.311-5.982,10.849-9.009c-14.5,9.509-17.571,11.01-20.158,10.397c-1.061-0.249-1.94-0.901-2.48-1.826     c-1.283-2.262-0.015-3.784,1.343-4.824c-0.285,0.182-0.573,0.367-0.858,0.552c-0.81,0.521-1.798,0.688-2.741,0.461     c-0.937-0.228-1.747-0.831-2.226-1.668c-0.452-0.779-0.888-2.059-0.424-3.751c0.154-0.552,0.455-1.164,0.891-1.822     c-0.315-0.282-0.582-0.612-0.803-0.988c-0.946-1.641-0.425-3.742,1.176-4.751c5.728-3.608,11.656-7.483,17.287-11.298     c-1.101,0.482-1.589,0.397-2.374,0.206c-0.94-0.224-1.777-0.843-2.259-1.686c-0.882-1.528-0.5-3.472,0.892-4.557l3.727-2.893     c-0.228-0.179-0.437-0.388-0.616-0.63c-1.116-1.456-0.925-3.53,0.437-4.757l1.646-1.489c-1.073-0.009-2.125-0.5-2.813-1.419     c-1.083-1.446-0.897-3.478,0.424-4.706c0.233-0.212,0.464-0.427,0.697-0.643c-4.572,2.486-5.688,2.501-6.953,2.192     c-0.998-0.252-1.828-0.87-2.338-1.75c-1.361-2.359-0.552-4.603,2.741-8.081c-0.634,0.091-1.198,0.064-1.744-0.058     c-1.146-0.251-2.092-0.94-2.668-1.938c-1.358-2.353-0.679-3.787,3.466-7.183c-0.394-0.798-0.473-1.726-0.209-2.586     c0.167-0.558,0.343-1.134,0.516-1.719c-10.74,6.428-11.11,6.337-12.611,5.949c-0.918-0.237-1.716-0.84-2.189-1.662     c-0.712-1.231-0.616-2.765,0.243-3.899l2.932-3.878c-0.073-0.1-0.143-0.209-0.207-0.315c-0.979-1.689-0.4-3.851,1.292-4.827     c0.218-0.127,0.449-0.23,0.682-0.306c0.779-0.413,3.008-1.75,4.824-2.875c1.446-0.895,3.327-0.634,4.473,0.627     c0.694,0.761,0.998,1.762,0.903,2.735c1.107-0.667,2.22-1.34,3.314-1.995c0.815-0.494,1.786-0.64,2.71-0.4     c0.919,0.233,1.701,0.833,2.174,1.652s0.764,1.319,0.24,3.827c4.469-3.196,6.695-4.357,8.89-3.899     c1.146,0.236,2.095,0.922,2.671,1.922c0.052,0.088,0.1,0.173,0.143,0.261c3.02-1.892,4.26-2.213,5.688-1.898     c1.024,0.228,1.913,0.873,2.438,1.777c1.689,2.929-0.146,5.558-5.694,10.503c0.03-0.015,0.061-0.033,0.091-0.055     c10.601-6.677,10.598-6.674,12.329-6.246c0.934,0.23,1.744,0.837,2.223,1.671c1.404,2.426-0.395,4.136-1.704,5.385     c-0.591,0.564-1.404,1.328-2.368,2.238c0.767-0.221,1.14-0.121,1.637,0.006c0.916,0.239,1.708,0.84,2.177,1.658     c0.834,1.44,0.546,3.272-0.688,4.388l-0.1,0.088c0.861-0.203,1.279-0.1,1.695,0c0.934,0.23,1.822,0.886,2.304,1.723     c0.552,0.958,0.609,2.077,0.23,3.05c0.982,0.279,1.792,0.907,2.295,1.78c0.977,1.686,0.725,3.444-0.251,5.221     c0.776-0.151,1.401-0.124,1.992,0.015c1.085,0.249,1.977,0.907,2.52,1.85c0.473,0.819,0.601,1.792,0.349,2.702     c-0.249,0.913-0.858,1.683-1.68,2.146c-1.825,1.022-3.672,2.068-5.524,3.135c0.806,0.306,1.477,0.871,1.91,1.625     c1.186,2.046,1.034,4.087-2.635,7.835c0.416,0.306,0.767,0.697,1.037,1.158c1.125,1.95,2.359,4.091-10.722,16.089     c0.3,0.255,0.564,0.564,0.773,0.928c0.974,1.686,0.397,3.848-1.294,4.824l-19.955,11.52     C159.416,171.457,158.806,171.608,158.203,171.608z" style="fill:#F4C162;"/></g><g><path d="M136.877,79.637c-0.343,0-0.649-0.043-0.937-0.112c-1.034-0.258-1.892-0.895-2.417-1.798     c-1.607-2.784-0.442-5.503,4.27-9.661c-0.052-0.012-0.1-0.021-0.151-0.033c-1.234-0.273-2.253-1.007-2.862-2.068     c-1.986-3.438,1.64-6.034,5.994-8.991c-0.561-1.434-0.127-3.099,1.122-4.072c0.118-0.094,0.243-0.188,0.361-0.282     c-5.209,2.756-5.937,2.574-6.804,2.35c-0.925-0.233-1.75-0.858-2.229-1.683c-0.879-1.528-0.503-3.466,0.885-4.551l11.974-9.345     c-0.919-1.683-0.331-3.796,1.334-4.757c0.491-0.282,1.022-0.434,1.55-0.467c2.265-0.998,10.2-5.855,16.753-10.091     c1.589-1.028,3.699-0.625,4.797,0.913c0.5,0.7,0.706,1.525,0.646,2.323c0.027-0.018,0.052-0.034,0.085-0.052     c0.81-0.497,1.792-0.643,2.714-0.409c0.922,0.236,1.71,0.831,2.189,1.659c0.879,1.522,1.043,2.783-0.855,5.194     c0.146,0.018,0.288,0.042,0.431,0.076c1.204,0.264,2.195,0.982,2.796,2.019c0.176,0.31,0.321,0.604,0.431,0.897     c0.233,0.009,0.461,0.046,0.688,0.094c1.058,0.237,1.974,0.901,2.508,1.829c1.634,2.832,0.251,5.464-5.07,9.809     c5.794-3.587,6.161-3.496,7.526-3.157c0.934,0.225,1.752,0.84,2.235,1.671c1.416,2.45-0.419,4.172-1.759,5.431     c-0.722,0.679-1.765,1.649-3.014,2.808c-2.483,2.298-5.807,5.355-9.133,8.408c-0.306,0.279-0.609,0.564-0.919,0.846     c0.037,0.048,0.067,0.103,0.1,0.161c0.346,0.604,0.51,1.301,0.461,1.995l-0.206,3.123c0.546,0.307,1.007,0.758,1.322,1.307     c0.982,1.689,0.403,3.851-1.283,4.827c-0.206,0.118-0.412,0.209-0.627,0.285c-0.3,0.176-0.828,0.506-1.286,0.81     c-1.122,0.743-2.559,0.785-3.721,0.109c-1.161-0.673-1.837-1.946-1.749-3.29l0.072-1.134c-1.868,1.098-4.005,2.365-6.031,3.572     c-1.552,0.931-3.563,0.531-4.642-0.921c-1.01-1.35-0.913-3.202,0.176-4.442C143.111,77.832,139.154,79.637,136.877,79.637z      M167.581,74.563c0.606,1.046,1.559,1.562,2.475,1.707C169.055,76.107,168.13,75.51,167.581,74.563z" style="fill:#F4C162;"/></g><g><path d="M247.416,171.608c-1.131,0-2.235-0.54-2.914-1.534c-1.043-1.522-0.743-3.59,0.694-4.748     c3.581-2.887,7.301-5.979,10.837-9.006c-14.482,9.5-17.557,11.001-20.137,10.392c-1.067-0.252-1.947-0.901-2.48-1.829     c-1.316-2.238,0.015-3.802,1.364-4.836c-0.291,0.188-0.585,0.373-0.879,0.561c-0.813,0.524-1.801,0.688-2.744,0.461     c-0.937-0.225-1.741-0.831-2.226-1.665c-0.449-0.776-0.886-2.059-0.419-3.751c0.149-0.555,0.452-1.167,0.892-1.822     c-0.315-0.282-0.585-0.613-0.8-0.989c-0.949-1.643-0.431-3.742,1.176-4.754c5.719-3.602,11.641-7.474,17.266-11.289     c-1.104,0.485-1.595,0.403-2.38,0.212c-0.946-0.225-1.777-0.846-2.259-1.686c-0.885-1.525-0.506-3.472,0.892-4.554l3.742-2.905     c-0.227-0.179-0.431-0.391-0.616-0.631c-1.116-1.455-0.925-3.529,0.443-4.76l1.659-1.504c-1.07-0.006-2.116-0.503-2.802-1.413     c-1.085-1.449-0.9-3.481,0.421-4.706c0.237-0.215,0.47-0.437,0.709-0.655c-4.569,2.483-5.679,2.496-6.938,2.183     c-1-0.246-1.832-0.867-2.338-1.75c-1.361-2.353-0.555-4.597,2.741-8.075c-0.637,0.088-1.204,0.061-1.75-0.061     c-1.146-0.255-2.092-0.94-2.668-1.935c-1.355-2.353-0.676-3.784,3.463-7.174c-0.397-0.8-0.473-1.722-0.218-2.58     c0.169-0.558,0.339-1.14,0.509-1.723c-10.771,6.447-11.14,6.355-12.644,5.968c-0.919-0.24-1.713-0.843-2.192-1.662     c-0.709-1.231-0.613-2.765,0.243-3.899l2.896-3.833c-0.079-0.109-0.151-0.224-0.221-0.342c-0.973-1.692-0.388-3.851,1.304-4.821     c0.218-0.127,0.446-0.228,0.679-0.303c0.785-0.416,3.035-1.768,4.867-2.902c1.443-0.892,3.323-0.634,4.473,0.627     c0.697,0.761,1,1.762,0.9,2.735c1.113-0.667,2.226-1.34,3.317-1.995c0.813-0.494,1.786-0.64,2.708-0.4     c0.919,0.233,1.704,0.831,2.18,1.652c0.47,0.816,0.758,1.316,0.243,3.827c4.463-3.199,6.686-4.357,8.888-3.899     c1.146,0.236,2.095,0.919,2.671,1.919c0.052,0.091,0.101,0.176,0.146,0.264c3.021-1.895,4.264-2.219,5.688-1.904     c1.031,0.227,1.916,0.879,2.438,1.776c1.692,2.933-0.146,5.558-5.688,10.507c0.031-0.024,0.067-0.042,0.098-0.061     c10.588-6.674,10.582-6.668,12.311-6.243c0.939,0.23,1.746,0.84,2.231,1.67c1.383,2.441-0.4,4.145-1.71,5.385     c-0.588,0.567-1.395,1.331-2.365,2.238c0.771-0.218,1.146-0.119,1.638,0.012c0.915,0.239,1.71,0.84,2.177,1.658     c0.831,1.44,0.546,3.269-0.691,4.382l-0.091,0.091c0.861-0.2,1.273-0.1,1.692,0c0.934,0.23,1.819,0.889,2.304,1.722     c0.552,0.958,0.606,2.074,0.23,3.044c0.982,0.285,1.789,0.913,2.293,1.783c0.982,1.691,0.728,3.453-0.255,5.233     c0.771-0.146,1.383-0.118,1.977,0.018c1.086,0.251,1.978,0.907,2.523,1.847c0.467,0.822,0.594,1.792,0.346,2.705     c-0.255,0.913-0.855,1.683-1.687,2.147c-1.837,1.028-3.699,2.086-5.566,3.16c0.806,0.306,1.479,0.873,1.916,1.622     c1.177,2.047,1.031,4.081-2.607,7.811c0.424,0.304,0.776,0.694,1.043,1.162c1.134,1.956,2.371,4.105-10.844,16.207     c0.285,0.249,0.54,0.549,0.74,0.9c0.977,1.686,0.4,3.848-1.292,4.824l-19.779,11.419     C248.625,171.457,248.019,171.608,247.416,171.608z" style="fill:#F4C162;"/></g><g><path d="M381.702,458.738c-0.31,0-0.534-0.055-0.746-0.109c-0.922-0.23-1.801-0.873-2.274-1.704     c-0.982-1.691-0.394-3.856,1.298-4.833c0.521-0.297,1.098-0.449,1.674-0.467c4.415-1.74,27.993-15.949,43.9-25.841     c0.813-0.509,1.789-0.661,2.723-0.424c0.928,0.23,1.723,0.831,2.195,1.655c0.686,1.183,0.831,2.329,0.225,3.76     c0.194,0.024,0.352,0.061,0.485,0.085c1.176,0.255,2.141,0.94,2.723,1.946c1.109,1.923,0.637,3.561-1.528,6.095     c0.552-0.133,1.146-0.127,1.71,0.019c0.916,0.236,1.692,0.831,2.165,1.655c0.758,1.304,1.122,2.45-1.116,6.265     c0.092,0.121,0.176,0.249,0.255,0.376c0.977,1.692,0.389,3.857-1.292,4.821l-4.845,2.802c-1.456,0.837-3.293,0.546-4.409-0.71     c-0.552-0.63-0.854-1.406-0.892-2.195c-8.999,5.282-9.32,5.191-10.703,4.834c-0.916-0.236-1.704-0.831-2.177-1.644     c-1.177-2.038-0.547-3.979,1.776-6.737c-1.601,1.109-3.178,2.237-4.694,3.348c-1.552,1.128-3.735,0.807-4.899-0.734     c-0.661-0.873-0.849-1.959-0.612-2.953C386.856,457.41,383.218,458.738,381.702,458.738z" style="fill:#25314C;"/></g><g><path d="M307.541,488.793c-0.37,0-0.697-0.042-1.013-0.108c-1.177-0.268-2.153-0.977-2.741-1.989     c-0.431-0.74-0.564-1.607-0.406-2.438c-3.045,1.067-5.148,1.377-6.556,1.037c-1.279-0.309-2.323-1.067-2.941-2.146     c-0.31-0.527-0.461-1.11-0.479-1.686c-10.673,5.664-15.051,7.01-17.022,6.524c-1.091-0.272-1.995-0.939-2.528-1.88     c-0.485-0.83-0.601-1.831-0.34-2.753c0.267-0.903,0.886-1.674,1.723-2.122c-0.91-0.243-1.668-0.837-2.141-1.644     c-0.413-0.716-0.576-1.371-0.546-1.983l-17.915,10.34c-0.813,0.473-1.774,0.595-2.677,0.357c-0.91-0.242-1.677-0.83-2.147-1.649     c-0.521-0.897-1.031-2.389-0.488-4.348c0.146-0.527,0.373-1.062,0.679-1.619c-2.344,1.576-4.69,3.159-7.013,4.748     c-0.81,0.552-1.816,0.746-2.774,0.521c-0.958-0.225-1.78-0.831-2.274-1.686c-1.234-2.146-0.027-3.705,1.088-4.67l-0.012-0.012     c0.012-0.006,0.073-0.055,0.185-0.134c0.279-0.218,0.54-0.406,0.746-0.552c0.443-0.315,1.028-0.722,1.734-1.225     c-6.271,3.784-9.391,4.833-11.613,4.348c-0.679-0.157-1.294-0.437-1.81-0.849c-11.977,6.101-14.133,5.585-15.57,5.251     c-1.213-0.291-2.205-1.012-2.799-2.037c-0.995-1.729-0.888-3.444,0.758-5.7l-9.105,5.251c-1.653,0.959-3.77,0.419-4.773-1.2     c-1-1.625-0.534-3.754,1.061-4.81c2.45-1.612,4.991-3.293,7.596-5.003c-6.04,3.888-12.095,7.835-18.057,11.765     c-0.815,0.528-1.816,0.71-2.756,0.485c-0.952-0.224-1.762-0.831-2.25-1.667c-0.904-1.571-0.834-3.094,0.176-4.755     c-17.38,9.83-18.284,9.6-19.637,9.242c-0.916-0.236-1.737-0.861-2.21-1.674c-0.364-0.625-0.555-1.322-0.573-2.038     c-2.578,0.837-3.469,0.619-4.239,0.438c-1.122-0.279-2.05-0.952-2.607-1.917c-0.209-0.376-0.352-0.771-0.422-1.177l-8.881,5.131     c-1.641,0.946-3.727,0.437-4.746-1.152c-0.709-1.109-0.722-2.48-0.139-3.56c-6.134,2.983-10.17,4.105-12.638,3.529     c-1.401-0.327-2.544-1.146-3.22-2.316c-1.677-2.917,1.191-4.846,2.135-5.482c0.718-0.479,1.78-1.17,3.135-2.037     c1.886-1.22,4.354-2.778,7.256-4.615c-13.545,7.459-23.888,12.874-24.036,12.947c-1.667,0.873-3.721,0.285-4.679-1.328     c-5.709,2.862-8.16,3.421-9.669,3.044c-1.059-0.267-1.929-0.915-2.456-1.837c-0.67-1.152-0.61-2.535,0.042-3.608l-4.888,2.826     c-1.68,0.97-3.83,0.406-4.809-1.268c-0.985-1.68-0.43-3.833,1.237-4.827c24.3-14.494,49.719-30.844,65.007-42.093     c-7.329,4.621-15.797,10.188-23.002,14.924c-34.737,22.839-45.543,29.315-50.134,28.224c-1.173-0.272-2.138-0.982-2.72-1.982     c-0.467-0.813-0.595-1.783-0.349-2.692c0.3-1.122,0.497-1.438,2.256-2.493c-0.622,0.213-1.292,0.243-1.938,0.079     c-0.937-0.225-1.741-0.831-2.226-1.662c-0.498-0.867-0.977-2.292-0.431-4.184c0.088-0.31,0.191-0.668,0.388-1.104     c-0.306-0.284-0.57-0.618-0.786-0.988c-0.961-1.661-0.415-3.79,1.225-4.778c14.661-8.927,30.446-19.327,41.004-27.169     c-7.778,4.761-16.841,10.71-23.072,14.791c-17.022,11.152-17.15,11.122-19.175,10.638c-0.946-0.225-1.798-0.855-2.286-1.698     c-0.364-0.625-0.513-1.322-0.467-2.001c-0.321,0.206-0.646,0.406-0.964,0.612c-1.589,1.007-3.685,0.601-4.776-0.928     s-0.797-3.646,0.676-4.815l0.346-0.279c-3.126,1.855-6.122,3.633-8.839,5.246c-1.592,0.958-3.645,0.51-4.703-1.013     c-0.773-1.11-0.828-2.517-0.242-3.645c-12.277,7.313-15.901,8.563-18.105,8.011c-1.064-0.261-1.94-0.903-2.474-1.838     c-1.343-2.322-0.688-4.561,2.268-7.665c-0.594,0.055-1.134,0.024-1.638-0.085c-1.207-0.272-2.204-0.982-2.808-2.031     c-1.877-3.245,1.328-5.592,4.715-8.066c0.207-0.145,0.422-0.309,0.643-0.46c-0.473-1.141-0.325-2.456,0.421-3.463     c0.23-0.31,0.461-0.625,0.691-0.94c-7.98,4.688-8.508,4.549-9.797,4.215c-0.922-0.236-1.723-0.843-2.198-1.668     c-0.761-1.315-0.595-2.978,0.418-4.111l4.946-5.555c-0.861-1.662-0.273-3.729,1.368-4.676c0.242-0.146,0.497-0.255,0.758-0.328     c0.858-0.448,3.36-1.958,5.4-3.226c1.492-0.928,3.436-0.625,4.566,0.716c0.643,0.764,0.913,1.722,0.815,2.644     c1.107-0.667,2.22-1.334,3.312-1.995c0.81-0.503,1.789-0.643,2.708-0.4c0.922,0.23,1.708,0.831,2.183,1.649     c0.534,0.929,0.919,1.595,0.215,3.354c4.6-3.038,6.823-3.881,8.848-3.444c1.164,0.249,2.125,0.946,2.711,1.953     c0.027,0.055,0.054,0.103,0.079,0.146c4.299-2.753,5.979-3.299,7.647-2.936c1.049,0.23,1.956,0.892,2.483,1.808     c2.15,3.711-0.785,6.804-11.541,14.833c4.958-3.099,9.77-6.149,13.578-8.568c17.396-11.05,17.396-11.044,19.367-10.559     c0.937,0.225,1.762,0.849,2.244,1.68c1.504,2.596-0.47,4.251-2.38,5.853c-0.209,0.17-0.437,0.357-0.682,0.57     c11.152-6.35,11.798-6.18,12.917-5.883c0.916,0.236,1.707,0.837,2.18,1.655c0.443,0.771,0.57,1.644,0.403,2.462     c9.373-5.063,10.731-4.735,11.656-4.512c1.016,0.255,1.855,0.874,2.368,1.766c0.027,0.042,0.049,0.084,0.07,0.127     c4.749-2.414,7.299-3.032,9.048-2.614c1.155,0.273,2.111,0.977,2.684,1.965c0.604,1.05,0.979,2.147,0.549,3.633     c9.582-6.052,13.445-7.671,15.956-7.089c1.146,0.267,2.092,0.952,2.659,1.94c0.27,0.467,0.424,0.982,0.461,1.51     c1.947-0.601,2.68-0.425,3.366-0.255c1.076,0.255,1.965,0.916,2.499,1.85c0.27,0.461,0.54,1.11,0.609,1.923     c5.613-3.093,8.117-3.748,9.897-3.323c1.116,0.261,2.038,0.934,2.59,1.904c1.397,2.407,0.67,5.045-2.814,8.823l12.316-7.113     c1.689-0.977,3.848-0.4,4.828,1.292c0.555,0.97,0.764,1.897,0.509,2.929c11.128-6.713,11.716-6.567,13.232-6.191     c0.521,0.133,1.019,0.382,1.434,0.739c10.855-5.451,12.866-4.967,14.218-4.651c1.201,0.285,2.187,0.995,2.769,2.014     c1.07,1.85,0.588,3.639-0.949,5.573c10.282-6.514,13.014-7.52,15.067-7.041c1.052,0.243,1.922,0.88,2.453,1.808     c0.916,1.576,0.467,3.596-1.025,4.651l-25.664,18.078l36.616-21.146c1.665-0.965,3.788-0.419,4.788,1.23     c0.306,0.504,0.473,1.062,0.506,1.619c2.065-1.322,4.124-2.644,6.165-3.966c0.815-0.521,1.81-0.691,2.747-0.461     c0.939,0.225,1.743,0.831,2.229,1.668c0.455,0.782,0.897,2.001,0.667,3.578c4.542-2.699,8.939-5.325,13.105-7.823     c0.818-0.485,1.795-0.625,2.698-0.382c0.928,0.236,1.704,0.837,2.178,1.649c0.588,1.019,0.818,2.037,0.624,3.153     c3.937-1.474,5.155-1.183,6.113-0.958c1.2,0.285,2.183,1,2.771,2.02c0.758,1.315,0.582,2.426,0.072,3.299l8.229-4.742     c1.68-0.971,3.833-0.4,4.815,1.273c0.977,1.68,0.425,3.832-1.243,4.821c-28.896,17.162-59.392,36.501-74.913,47.884     c13.359-7.034,35.354-20.279,59.024-35.265c10.909-7.531,19.994-13.511,27.234-17.531c1.881-1.231,3.761-2.463,5.622-3.693     c0.819-0.534,1.819-0.704,2.766-0.479c0.036,0.006,0.085,0.013,0.121,0.03c3.693-1.461,6.592-2.02,8.715-1.559     c1.698,0.382,3.025,1.328,3.851,2.747c0.437,0.752,0.564,1.602,0.418,2.402c8.896-4.124,11.031-3.633,12.402-3.317     c1.346,0.309,2.443,1.104,3.099,2.22c0.582,1.019,0.733,2.237,0.4,3.42c-0.194,0.691-0.576,1.406-1.183,2.183l3.954-2.286     c1.655-0.958,3.79-0.412,4.778,1.231c0.4,0.655,0.564,1.395,0.51,2.099l13.457-7.763c1.686-0.977,3.845-0.4,4.82,1.292     c0.389,0.66,0.765,1.661,0.661,2.959c13.1-8.193,13.136-8.175,14.67-7.799c0.928,0.23,1.729,0.831,2.208,1.662     c1.006,1.752,0.964,3.189-1.262,5.53c9.697-6.24,10.012-6.155,11.498-5.81c0.946,0.23,1.765,0.843,2.25,1.68     c0.072,0.127,0.146,0.273,0.225,0.437c6.974-3.578,11.971-5.197,14.948-4.512c1.54,0.352,2.802,1.249,3.535,2.535     c0.57,0.982,0.71,2.159,0.395,3.317c-0.225,0.818-0.516,1.892-2.983,4.232c0.03,0.049,0.061,0.097,0.091,0.14     c1.031,1.577,0.648,3.687-0.873,4.791c-0.17,0.127-13.621,9.909-30.462,21.358c0.527,1.468,0.073,3.48-5.354,8.441     c0.521,0.31,0.964,0.746,1.268,1.279c1.273,2.189,0.418,4.275-2.341,7.6c3.626-1.923,4.263-1.766,5.197-1.535     c0.922,0.23,1.752,0.855,2.231,1.687c0.873,1.516,1.649,2.856-4.64,12.511c0.037,1.086-0.424,2.171-1.34,2.893     c-1.171,0.916-2.444,1.777-4.111,1.468c-1.007-0.188-1.917-0.837-2.433-1.729c-0.679-1.171-0.624-2.632,0.14-3.748     c0.176-0.267,0.358-0.533,0.54-0.807c-3.002,1.802-6.35,3.845-9.515,5.816c-0.807,0.509-1.789,0.661-2.724,0.424     c-0.928-0.23-1.722-0.83-2.201-1.661c-1.158-2.014-0.497-4.033,1.704-6.89c-19.879,11.978-21.243,11.626-22.596,11.286     c-0.922-0.23-1.795-0.873-2.268-1.704c-0.922-1.601-0.461-3.645,1.066-4.688c1.583-1.073,3.178-2.165,4.767-3.269l-12.335,7.131     c-0.891,0.516-1.916,0.601-2.825,0.31c-8.018,3.427-10.516,2.893-12.008,2.577c-2.177-0.467-3.305-1.716-3.869-2.692     c-0.061-0.115-0.121-0.23-0.176-0.346C312.514,487.659,309.561,488.793,307.541,488.793z M138.878,433.414     c-16.116,9.205-40.482,24.317-59.237,36.344C110.813,451.922,128.657,440.575,138.878,433.414z M400.774,429.981     c-2.401,2.122-5.768,4.803-10.534,8.223c9.219-5.791,16.98-10.903,22.123-14.688C409.125,425.105,405.165,427.35,400.774,429.981     z" style="fill:#25314C;"/></g><g><path d="M217.64,324.564c-0.313,0-0.57-0.067-0.87-0.146c-0.919-0.23-1.72-0.837-2.195-1.662     c-0.798-1.376-0.573-3.117,0.546-4.251l6.279-6.361c-0.81-1.656-0.209-3.675,1.41-4.609c0.288-0.17,0.594-0.285,0.9-0.369     c1.058-0.534,4.16-2.414,6.686-4.003c1.519-0.964,3.511-0.625,4.639,0.776c0.598,0.746,0.849,1.668,0.761,2.559     c0.649-0.224,1.352-0.254,2.025-0.085c0.922,0.243,1.707,0.837,2.183,1.656c0.694,1.2,0.977,1.698-1.076,9.296     c0.97,1.687,0.385,3.846-1.298,4.815c-0.14,0.079-0.282,0.151-0.428,0.206c-0.755,0.746-1.604,1.11-2.599,1.08     c-1.243-0.019-2.474-0.758-3.093-1.832c-0.476-0.824-0.6-1.807-0.343-2.723c0.161-0.57,0.325-1.164,0.488-1.753     C221.232,323.418,218.946,324.564,217.64,324.564z" style="fill:#030403;"/></g><g><path d="M226.764,79.648c-0.373,0-0.698-0.051-1.007-0.127c-1.037-0.258-1.892-0.892-2.414-1.795     c-1.556-2.696-0.506-5.331,3.851-9.285c-0.115-0.015-0.227-0.033-0.342-0.061c-1.234-0.273-2.25-1.007-2.866-2.068     c-1.977-3.426,1.619-6.022,5.961-8.966c-0.567-1.44-0.127-3.108,1.131-4.081c0.094-0.076,0.194-0.148,0.294-0.228     c-5.267,2.784-5.994,2.602-6.874,2.377c-0.922-0.233-1.75-0.858-2.226-1.68c-0.885-1.531-0.503-3.475,0.892-4.561l11.355-8.808     c-0.012-0.024-0.024-0.042-0.039-0.067c-0.974-1.689-0.397-3.848,1.292-4.824c0.512-0.294,1.064-0.449,1.616-0.47     c2.414-1.049,11.031-6.322,18.157-10.94c1.589-1.028,3.702-0.622,4.797,0.919c0.497,0.7,0.703,1.519,0.643,2.316     c0.782-0.424,1.698-0.542,2.56-0.324c0.928,0.233,1.716,0.834,2.195,1.659c0.892,1.54,1.055,2.82-0.922,5.291     c0.121,0.015,0.236,0.033,0.352,0.061c1.207,0.264,2.201,0.985,2.802,2.022c0.188,0.331,0.346,0.649,0.449,0.964     c0.193,0.015,0.376,0.045,0.563,0.088c1.056,0.236,1.971,0.9,2.505,1.822c1.631,2.832,0.248,5.458-5.063,9.806     c5.566-3.438,5.937-3.348,7.289-3.011c0.939,0.23,1.753,0.843,2.231,1.677c1.419,2.414-0.395,4.139-1.716,5.394     c-0.71,0.67-1.717,1.619-2.93,2.759c-2.426,2.265-5.651,5.267-8.89,8.269c-0.261,0.239-0.516,0.479-0.771,0.715     c0.036,0.061,0.076,0.125,0.115,0.185c0.388,0.67,0.546,1.443,0.448,2.208l-0.352,2.823c0.498,0.306,0.916,0.734,1.207,1.246     c0.971,1.692,0.382,3.848-1.307,4.821c-0.206,0.115-0.412,0.206-0.628,0.279c-0.324,0.191-0.903,0.555-1.416,0.888     c-1.146,0.758-2.635,0.782-3.805,0.051c-1.17-0.728-1.813-2.064-1.644-3.435l0.073-0.591c-1.716,1.013-3.629,2.141-5.449,3.229     c-1.549,0.928-3.551,0.531-4.636-0.918c-1.034-1.377-0.916-3.284,0.242-4.524C232.524,78.044,228.871,79.646,226.764,79.648z      M256.934,74.473c0.225,0.391,0.504,0.712,0.813,0.964C257.428,75.176,257.152,74.849,256.934,74.473z" style="fill:#F4C162;"/></g></g></g><g id="Layer_1"/></svg>